RobotoSerifMicroWide-SuperItalic04ip.ufo
<glyph name="exclam" format="2">
  <advance width="530"/>
  <unicode hex="0021"/>
  <outline>
    <contour>
      <point x="542" y="766" type="line"/>
      <point x="508" y="558"/>
      <point x="411" y="477"/>
      <point x="377" y="286" type="curve"/>
      <point x="225" y="286" type="line"/>
      <point x="259" y="475"/>
      <point x="204" y="571"/>
      <point x="237" y="766" type="curve"/>
    </contour>
    <contour>
      <point x="428.5" y="102" type="curve" smooth="yes"/>
      <point x="428.5" y="177"/>
      <point x="374.5" y="231"/>
      <point x="282.5" y="231" type="curve" smooth="yes"/>
      <point x="189.5" y="231"/>
      <point x="134.5" y="177"/>
      <point x="134.5" y="102" type="curve" smooth="yes"/>
      <point x="134.5" y="22"/>
      <point x="189.5" y="-26"/>
      <point x="282.5" y="-26" type="curve" smooth="yes"/>
      <point x="374.5" y="-26"/>
      <point x="428.5" y="23"/>
    </contour>
  </outline>
</glyph>
<glyph name="three" format="2">
  <advance width="680"/>
  <unicode hex="0033"/>
  <outline>
    <contour>
      <point x="373" y="-58" type="curve" smooth="yes"/>
      <point x="183" y="-58"/>
      <point x="101" y="13"/>
      <point x="55" y="105" type="curve"/>
      <point x="173" y="178" type="line"/>
      <point x="210" y="111"/>
      <point x="255" y="74"/>
      <point x="326" y="74" type="curve" smooth="yes"/>
      <point x="391" y="74"/>
      <point x="422" y="114"/>
      <point x="422" y="171" type="curve" smooth="yes"/>
      <point x="422" y="227"/>
      <point x="388" y="273"/>
      <point x="286" y="273" type="curve" smooth="yes"/>
      <point x="225" y="273" type="line"/>
      <point x="241" y="375" type="line"/>
      <point x="321" y="375" type="line" smooth="yes"/>
      <point x="432" y="375"/>
      <point x="470" y="431"/>
      <point x="470" y="496" type="curve" smooth="yes"/>
      <point x="470" y="553"/>
      <point x="441" y="583"/>
      <point x="375" y="583" type="curve" smooth="yes"/>
      <point x="317" y="583"/>
      <point x="297" y="575"/>
      <point x="260" y="563" type="curve"/>
      <point x="264" y="579"/>
      <point x="305" y="612"/>
      <point x="344" y="616" type="curve"/>
      <point x="322" y="481" type="line"/>
      <point x="152" y="481" type="line"/>
      <point x="179" y="650" type="line"/>
      <point x="230" y="668"/>
      <point x="310" y="693"/>
      <point x="430" y="693" type="curve" smooth="yes"/>
      <point x="611" y="693"/>
      <point x="716" y="625"/>
      <point x="716" y="520" type="curve" smooth="yes"/>
      <point x="716" y="395"/>
      <point x="634" y="350"/>
      <point x="419" y="343" type="curve"/>
      <point x="487" y="366" type="line"/>
      <point x="478" y="307" type="line"/>
      <point x="416" y="323" type="line"/>
      <point x="636" y="307"/>
      <point x="684" y="250"/>
      <point x="684" y="150" type="curve" smooth="yes"/>
      <point x="684" y="30"/>
      <point x="579" y="-58"/>
    </contour>
  </outline>
</glyph>
<glyph name="k" format="2">
  <advance width="923"/>
  <unicode hex="006B"/>
  <anchor x="483" y="0" name="bottom"/>
  <outline>
    <contour>
      <point x="802" y="140" type="line" smooth="yes"/>
      <point x="812" y="123"/>
      <point x="823" y="118"/>
      <point x="856" y="118" type="curve" smooth="yes"/>
      <point x="875" y="118"/>
      <point x="895" y="118"/>
      <point x="914" y="118" type="curve"/>
      <point x="895" y="0" type="line"/>
      <point x="827" y="0"/>
      <point x="759" y="0"/>
      <point x="691" y="0" type="curve" smooth="yes"/>
      <point x="617" y="0"/>
      <point x="583" y="9"/>
      <point x="557" y="59" type="curve" smooth="yes"/>
      <point x="437" y="286" type="line"/>
      <point x="441" y="312" type="line"/>
      <point x="524" y="396"/>
      <point x="609" y="480"/>
      <point x="692" y="565" type="curve"/>
      <point x="958" y="565" type="line"/>
      <point x="959" y="550" type="line"/>
      <point x="833" y="480"/>
      <point x="707" y="410"/>
      <point x="581" y="340" type="curve"/>
      <point x="648" y="406" type="line"/>
    </contour>
    <contour>
      <point x="367" y="0" type="line"/>
      <point x="495" y="780" type="line"/>
      <point x="164" y="780" type="line"/>
      <point x="148" y="680" type="line"/>
      <point x="162" y="678" type="line" smooth="yes"/>
      <point x="203" y="672"/>
      <point x="213" y="668"/>
      <point x="211" y="658" type="curve" smooth="yes"/>
      <point x="102" y="0" type="line"/>
    </contour>
  </outline>
</glyph>
<glyph name="z" format="2">
  <advance width="783"/>
  <unicode hex="007A"/>
  <guideline x="380" y="203" angle="81" identifier="iTgO9sl02Y"/>
  <anchor x="468" y="571" name="top"/>
  <anchor x="398" y="0" name="bottom"/>
  <outline>
    <contour>
      <point x="586" y="-12" type="curve" smooth="yes"/>
      <point x="721" y="-12"/>
      <point x="790" y="66"/>
      <point x="790" y="192" type="curve" smooth="yes"/>
      <point x="790" y="216"/>
      <point x="786" y="241"/>
      <point x="779" y="264" type="curve"/>
      <point x="685" y="272" type="line"/>
      <point x="668" y="201"/>
      <point x="635" y="177"/>
      <point x="540" y="177" type="curve" smooth="yes"/>
      <point x="434" y="177"/>
      <point x="391" y="195"/>
      <point x="359" y="210" type="curve"/>
      <point x="321" y="163" type="line"/>
      <point x="389" y="75"/>
      <point x="438" y="-12"/>
    </contour>
    <contour>
      <point x="215" y="0" type="line"/>
      <point x="746" y="428" type="line"/>
      <point x="769" y="572" type="line"/>
      <point x="162" y="572" type="line"/>
      <point x="116" y="309" type="line"/>
      <point x="226" y="309" type="line"/>
      <point x="243" y="347" type="line" smooth="yes"/>
      <point x="258" y="381"/>
      <point x="281" y="389"/>
      <point x="376" y="389" type="curve" smooth="yes"/>
      <point x="598" y="389" type="line"/>
      <point x="578" y="438" type="line"/>
      <point x="93" y="58" type="line"/>
      <point x="84" y="0" type="line"/>
    </contour>
  </outline>
</glyph>
<glyph name="ordmasculine" format="2">
  <advance width="638"/>
  <unicode hex="00BA"/>
  <outline>
    <contour>
      <point x="390" y="272" type="curve" smooth="yes"/>
      <point x="618" y="272"/>
      <point x="696" y="389"/>
      <point x="696" y="513" type="curve" smooth="yes"/>
      <point x="696" y="654"/>
      <point x="590" y="730"/>
      <point x="406" y="730" type="curve" smooth="yes"/>
      <point x="169" y="730"/>
      <point x="101" y="604"/>
      <point x="101" y="489" type="curve" smooth="yes"/>
      <point x="101" y="359"/>
      <point x="207" y="272"/>
    </contour>
    <contour>
      <point x="421" y="642" type="curve" smooth="yes"/>
      <point x="469" y="642"/>
      <point x="486" y="610"/>
      <point x="486" y="564" type="curve" smooth="yes"/>
      <point x="486" y="502"/>
      <point x="466" y="361"/>
      <point x="376" y="361" type="curve" smooth="yes"/>
      <point x="327" y="361"/>
      <point x="311" y="393"/>
      <point x="311" y="439" type="curve" smooth="yes"/>
      <point x="311" y="503"/>
      <point x="331" y="642"/>
    </contour>
  </outline>
</glyph>
<glyph name="icircumflex" format="2">
  <advance width="470"/>
  <unicode hex="00EE"/>
  <outline>
    <contour>
      <point x="431" y="870" type="line"/>
      <point x="556" y="671" type="line"/>
      <point x="548" y="618" type="line"/>
      <point x="472" y="618" type="line"/>
      <point x="292" y="727" type="line"/>
      <point x="351" y="729" type="line"/>
      <point x="149" y="618" type="line"/>
      <point x="58" y="618" type="line"/>
      <point x="66" y="671" type="line"/>
      <point x="258" y="870" type="line"/>
    </contour>
    <contour>
      <point x="411" y="252.0" type="curve" smooth="yes"/>
      <point x="471" y="572.0" type="line"/>
      <point x="131" y="572.0" type="line"/>
      <point x="115" y="472.0" type="line"/>
      <point x="137" y="469.0" type="line" smooth="yes"/>
      <point x="175" y="464"/>
      <point x="186" y="459"/>
      <point x="184" y="446.0" type="curve" smooth="yes"/>
      <point x="147" y="247.0" type="line" smooth="yes"/>
      <point x="134" y="176"/>
      <point x="129.0" y="145.0"/>
      <point x="129" y="115.0" type="curve" smooth="yes"/>
      <point x="129" y="34"/>
      <point x="179" y="0.0"/>
      <point x="273" y="0.0" type="curve" smooth="yes"/>
      <point x="336" y="0"/>
      <point x="374" y="0.0"/>
      <point x="444" y="0.0" type="curve"/>
      <point x="463" y="118.0" type="line"/>
      <point x="440" y="118.0"/>
      <point x="449" y="118.0"/>
      <point x="433" y="118.0" type="curve" smooth="yes"/>
      <point x="409" y="118.0"/>
      <point x="397.0" y="126.0"/>
      <point x="397" y="147.0" type="curve" smooth="yes"/>
      <point x="397.0" y="160"/>
      <point x="398" y="181"/>
    </contour>
  </outline>
</glyph>
<glyph name="imacron" format="2">
  <advance width="470"/>
  <unicode hex="012B"/>
  <outline>
    <contour>
      <point x="125" y="787" type="line"/>
      <point x="102" y="644" type="line"/>
      <point x="516" y="644" type="line"/>
      <point x="539" y="787" type="line"/>
    </contour>
    <contour>
      <point x="411" y="252.0" type="curve" smooth="yes"/>
      <point x="471" y="572.0" type="line"/>
      <point x="131" y="572.0" type="line"/>
      <point x="115" y="472.0" type="line"/>
      <point x="137" y="469.0" type="line" smooth="yes"/>
      <point x="175" y="464"/>
      <point x="186" y="459"/>
      <point x="184" y="446.0" type="curve" smooth="yes"/>
      <point x="147" y="247.0" type="line" smooth="yes"/>
      <point x="134" y="176"/>
      <point x="129.0" y="145.0"/>
      <point x="129" y="115.0" type="curve" smooth="yes"/>
      <point x="129" y="34"/>
      <point x="179" y="0.0"/>
      <point x="273" y="0.0" type="curve" smooth="yes"/>
      <point x="336" y="0"/>
      <point x="374" y="0.0"/>
      <point x="444" y="0.0" type="curve"/>
      <point x="463" y="118.0" type="line"/>
      <point x="440" y="118.0"/>
      <point x="449" y="118.0"/>
      <point x="433" y="118.0" type="curve" smooth="yes"/>
      <point x="409" y="118.0"/>
      <point x="397.0" y="126.0"/>
      <point x="397" y="147.0" type="curve" smooth="yes"/>
      <point x="397.0" y="160"/>
      <point x="398" y="181"/>
    </contour>
  </outline>
</glyph>
<glyph name="ibreve" format="2">
  <advance width="470"/>
  <unicode hex="012D"/>
  <outline>
    <contour>
      <point x="322" y="621.0" type="curve" smooth="yes"/>
      <point x="167" y="621.0"/>
      <point x="98" y="706.0"/>
      <point x="113" y="843.0" type="curve"/>
      <point x="222" y="843.0" type="line"/>
      <point x="226" y="789.0"/>
      <point x="261" y="768.0"/>
      <point x="339" y="768.0" type="curve" smooth="yes"/>
      <point x="417" y="768.0"/>
      <point x="456" y="789.0"/>
      <point x="479" y="843.0" type="curve"/>
      <point x="584" y="843.0" type="line"/>
      <point x="551" y="696.0"/>
      <point x="478" y="621.0"/>
    </contour>
    <contour>
      <point x="411" y="252.0" type="curve" smooth="yes"/>
      <point x="471" y="572.0" type="line"/>
      <point x="131" y="572.0" type="line"/>
      <point x="115" y="472.0" type="line"/>
      <point x="137" y="469.0" type="line" smooth="yes"/>
      <point x="175" y="464"/>
      <point x="186" y="459"/>
      <point x="184" y="446.0" type="curve" smooth="yes"/>
      <point x="147" y="247.0" type="line" smooth="yes"/>
      <point x="134" y="176"/>
      <point x="129.0" y="145.0"/>
      <point x="129" y="115.0" type="curve" smooth="yes"/>
      <point x="129" y="34"/>
      <point x="179" y="0.0"/>
      <point x="273" y="0.0" type="curve" smooth="yes"/>
      <point x="336" y="0"/>
      <point x="374" y="0.0"/>
      <point x="444" y="0.0" type="curve"/>
      <point x="463" y="118.0" type="line"/>
      <point x="440" y="118.0"/>
      <point x="449" y="118.0"/>
      <point x="433" y="118.0" type="curve" smooth="yes"/>
      <point x="409" y="118.0"/>
      <point x="397.0" y="126.0"/>
      <point x="397" y="147.0" type="curve" smooth="yes"/>
      <point x="397.0" y="160"/>
      <point x="398" y="181"/>
    </contour>
  </outline>
</glyph>
<glyph name="Lslash" format="2">
  <advance width="871"/>
  <unicode hex="0141"/>
  <outline>
    <contour>
      <point x="32" y="174" type="line"/>
      <point x="731" y="413" type="line"/>
      <point x="749" y="528" type="line"/>
      <point x="50" y="289" type="line"/>
    </contour>
    <contour>
      <point x="612" y="710" type="line"/>
      <point x="159" y="710" type="line"/>
      <point x="143" y="605" type="line"/>
      <point x="168" y="605" type="line" smooth="yes"/>
      <point x="198" y="605"/>
      <point x="217" y="593"/>
      <point x="214" y="575" type="curve" smooth="yes"/>
      <point x="144" y="135" type="line" smooth="yes"/>
      <point x="141" y="115"/>
      <point x="119" y="105"/>
      <point x="89" y="105" type="curve" smooth="yes"/>
      <point x="63" y="105" type="line"/>
      <point x="46" y="0" type="line"/>
      <point x="826" y="0" type="line"/>
      <point x="871" y="282" type="line"/>
      <point x="741" y="282" type="line"/>
      <point x="694" y="143" type="line" smooth="yes"/>
      <point x="682" y="107"/>
      <point x="645" y="98"/>
      <point x="550" y="98" type="curve" smooth="yes"/>
      <point x="417" y="98" type="line"/>
      <point x="495" y="592" type="line" smooth="yes"/>
      <point x="497" y="602"/>
      <point x="517" y="605"/>
      <point x="547" y="605" type="curve" smooth="yes"/>
      <point x="596" y="605" type="line"/>
    </contour>
  </outline>
</glyph>
<glyph name="lslash" format="2">
  <advance width="524"/>
  <unicode hex="0142"/>
  <outline>
    <contour>
      <point x="40" y="191" type="line"/>
      <point x="587" y="462" type="line"/>
      <point x="606" y="580" type="line"/>
      <point x="59" y="309" type="line"/>
    </contour>
    <contour>
      <point x="433" y="252" type="curve" smooth="yes"/>
      <point x="520" y="780" type="line"/>
      <point x="189" y="780" type="line"/>
      <point x="173" y="680" type="line"/>
      <point x="187" y="678" type="line" smooth="yes"/>
      <point x="228" y="672"/>
      <point x="237" y="667"/>
      <point x="236" y="658" type="curve" smooth="yes"/>
      <point x="168" y="247" type="line" smooth="yes"/>
      <point x="156" y="176"/>
      <point x="152" y="145"/>
      <point x="152" y="115" type="curve" smooth="yes"/>
      <point x="152" y="34"/>
      <point x="202" y="0"/>
      <point x="296" y="0" type="curve" smooth="yes"/>
      <point x="359" y="0"/>
      <point x="397" y="0"/>
      <point x="467" y="0" type="curve"/>
      <point x="486" y="118" type="line"/>
      <point x="463" y="118"/>
      <point x="472" y="118"/>
      <point x="456" y="118" type="curve" smooth="yes"/>
      <point x="432" y="118"/>
      <point x="420" y="126"/>
      <point x="420" y="147" type="curve" smooth="yes"/>
      <point x="420" y="160"/>
      <point x="421" y="181"/>
    </contour>
  </outline>
</glyph>
<glyph name="Uhorn" format="2">
  <advance width="1134"/>
  <unicode hex="01AF"/>
  <anchor x="637" y="741" name="top"/>
  <anchor x="520" y="0" name="bottom"/>
  <outline>
    <contour>
      <point x="510" y="-25" type="curve" smooth="yes"/>
      <point x="713" y="-25"/>
      <point x="846" y="59"/>
      <point x="882" y="286" type="curve" smooth="yes"/>
      <point x="928" y="575" type="line" smooth="yes"/>
      <point x="933" y="604"/>
      <point x="958" y="609"/>
      <point x="1004" y="614" type="curve" smooth="yes"/>
      <point x="1144" y="631"/>
      <point x="1237" y="657"/>
      <point x="1262" y="888" type="curve"/>
      <point x="1093" y="888" type="line"/>
      <point x="1062" y="726"/>
      <point x="1046" y="710"/>
      <point x="879" y="710" type="curve" smooth="yes"/>
      <point x="770" y="710" type="line"/>
      <point x="754" y="605" type="line"/>
      <point x="770" y="605" type="line" smooth="yes"/>
      <point x="806" y="605"/>
      <point x="819" y="600"/>
      <point x="818" y="591" type="curve" smooth="yes"/>
      <point x="771" y="296" type="line" smooth="yes"/>
      <point x="748" y="154"/>
      <point x="683" y="101"/>
      <point x="576" y="101" type="curve" smooth="yes"/>
      <point x="484" y="101"/>
      <point x="431" y="133"/>
      <point x="431" y="230" type="curve" smooth="yes"/>
      <point x="431" y="249"/>
      <point x="432" y="271"/>
      <point x="436" y="296" type="curve" smooth="yes"/>
      <point x="483" y="592" type="line" smooth="yes"/>
      <point x="484" y="601"/>
      <point x="502" y="605"/>
      <point x="534" y="605" type="curve" smooth="yes"/>
      <point x="552" y="605" type="line"/>
      <point x="568" y="710" type="line"/>
      <point x="147" y="710" type="line"/>
      <point x="131" y="605" type="line"/>
      <point x="156" y="605" type="line" smooth="yes"/>
      <point x="186" y="605"/>
      <point x="205" y="593"/>
      <point x="202" y="575" type="curve" smooth="yes"/>
      <point x="165" y="339" type="line" smooth="yes"/>
      <point x="156" y="281"/>
      <point x="154" y="256"/>
      <point x="154" y="228" type="curve" smooth="yes"/>
      <point x="154" y="56"/>
      <point x="302" y="-25"/>
    </contour>
  </outline>
</glyph>
<glyph name="icaron" format="2">
  <advance width="470"/>
  <unicode hex="01D0"/>
  <outline>
    <contour>
      <point x="243" y="618" type="line"/>
      <point x="117" y="817" type="line"/>
      <point x="126" y="870" type="line"/>
      <point x="202" y="870" type="line"/>
      <point x="382" y="761" type="line"/>
      <point x="323" y="759" type="line"/>
      <point x="525" y="870" type="line"/>
      <point x="616" y="870" type="line"/>
      <point x="607" y="817" type="line"/>
      <point x="416" y="618" type="line"/>
    </contour>
    <contour>
      <point x="411" y="252.0" type="curve" smooth="yes"/>
      <point x="471" y="572.0" type="line"/>
      <point x="131" y="572.0" type="line"/>
      <point x="115" y="472.0" type="line"/>
      <point x="137" y="469.0" type="line" smooth="yes"/>
      <point x="175" y="464"/>
      <point x="186" y="459"/>
      <point x="184" y="446.0" type="curve" smooth="yes"/>
      <point x="147" y="247.0" type="line" smooth="yes"/>
      <point x="134" y="176"/>
      <point x="129.0" y="145.0"/>
      <point x="129" y="115.0" type="curve" smooth="yes"/>
      <point x="129" y="34"/>
      <point x="179" y="0.0"/>
      <point x="273" y="0.0" type="curve" smooth="yes"/>
      <point x="336" y="0"/>
      <point x="374" y="0.0"/>
      <point x="444" y="0.0" type="curve"/>
      <point x="463" y="118.0" type="line"/>
      <point x="440" y="118.0"/>
      <point x="449" y="118.0"/>
      <point x="433" y="118.0" type="curve" smooth="yes"/>
      <point x="409" y="118.0"/>
      <point x="397.0" y="126.0"/>
      <point x="397" y="147.0" type="curve" smooth="yes"/>
      <point x="397.0" y="160"/>
      <point x="398" y="181"/>
    </contour>
  </outline>
</glyph>
<glyph name="iinvertedbreve" format="2">
  <advance width="470"/>
  <unicode hex="020B"/>
  <outline>
    <contour>
      <point x="360.0" y="843.0" type="curve" smooth="yes"/>
      <point x="204.0" y="843.0"/>
      <point x="131.0" y="768.0"/>
      <point x="98.0" y="621.0" type="curve"/>
      <point x="203.0" y="621.0" type="line"/>
      <point x="226.0" y="675.0"/>
      <point x="265.0" y="696.0"/>
      <point x="343.0" y="696.0" type="curve" smooth="yes"/>
      <point x="421.0" y="696.0"/>
      <point x="456.0" y="675.0"/>
      <point x="460.0" y="621.0" type="curve"/>
      <point x="569.0" y="621.0" type="line"/>
      <point x="584.0" y="758.0"/>
      <point x="515.0" y="843.0"/>
    </contour>
    <contour>
      <point x="411" y="252.0" type="curve" smooth="yes"/>
      <point x="471" y="572.0" type="line"/>
      <point x="131" y="572.0" type="line"/>
      <point x="115" y="472.0" type="line"/>
      <point x="137" y="469.0" type="line" smooth="yes"/>
      <point x="175" y="464"/>
      <point x="186" y="459"/>
      <point x="184" y="446.0" type="curve" smooth="yes"/>
      <point x="147" y="247.0" type="line" smooth="yes"/>
      <point x="134" y="176"/>
      <point x="129.0" y="145.0"/>
      <point x="129" y="115.0" type="curve" smooth="yes"/>
      <point x="129" y="34"/>
      <point x="179" y="0.0"/>
      <point x="273" y="0.0" type="curve" smooth="yes"/>
      <point x="336" y="0"/>
      <point x="374" y="0.0"/>
      <point x="444" y="0.0" type="curve"/>
      <point x="463" y="118.0" type="line"/>
      <point x="440" y="118.0"/>
      <point x="449" y="118.0"/>
      <point x="433" y="118.0" type="curve" smooth="yes"/>
      <point x="409" y="118.0"/>
      <point x="397.0" y="126.0"/>
      <point x="397" y="147.0" type="curve" smooth="yes"/>
      <point x="397.0" y="160"/>
      <point x="398" y="181"/>
    </contour>
  </outline>
</glyph>
<glyph name="idieresisacute" format="2">
  <advance width="470"/>
  <unicode hex="1E2F"/>
  <outline>
    <contour>
      <point x="163" y="610" type="curve" smooth="yes"/>
      <point x="241" y="610"/>
      <point x="287" y="645"/>
      <point x="287" y="717" type="curve" smooth="yes"/>
      <point x="287" y="788"/>
      <point x="241" y="824"/>
      <point x="163" y="824" type="curve" smooth="yes"/>
      <point x="83" y="824"/>
      <point x="37" y="788"/>
      <point x="37" y="717" type="curve" smooth="yes"/>
      <point x="37" y="644"/>
      <point x="83" y="610"/>
    </contour>
    <contour>
      <point x="468" y="610" type="curve" smooth="yes"/>
      <point x="546" y="610"/>
      <point x="592" y="645"/>
      <point x="592" y="717" type="curve" smooth="yes"/>
      <point x="592" y="788"/>
      <point x="546" y="824"/>
      <point x="468" y="824" type="curve" smooth="yes"/>
      <point x="389" y="824"/>
      <point x="343" y="788"/>
      <point x="343" y="717" type="curve" smooth="yes"/>
      <point x="343" y="644"/>
      <point x="389" y="610"/>
    </contour>
    <contour>
      <point x="357" y="997" type="curve" smooth="yes"/>
      <point x="257" y="877" type="line"/>
      <point x="250" y="832" type="line"/>
      <point x="306" y="832" type="line"/>
      <point x="467" y="884" type="line" smooth="yes"/>
      <point x="540" y="908"/>
      <point x="583" y="930"/>
      <point x="583" y="998" type="curve" smooth="yes"/>
      <point x="583" y="1037"/>
      <point x="556" y="1081"/>
      <point x="492" y="1081" type="curve" smooth="yes"/>
      <point x="427" y="1081"/>
      <point x="401" y="1050"/>
    </contour>
    <contour>
      <point x="411" y="252" type="curve" smooth="yes"/>
      <point x="471" y="572" type="line"/>
      <point x="131" y="572" type="line"/>
      <point x="115" y="472" type="line"/>
      <point x="137" y="469" type="line" smooth="yes"/>
      <point x="175" y="464"/>
      <point x="186" y="459"/>
      <point x="184" y="446" type="curve" smooth="yes"/>
      <point x="147" y="247" type="line" smooth="yes"/>
      <point x="134" y="176"/>
      <point x="129" y="145"/>
      <point x="129" y="115" type="curve" smooth="yes"/>
      <point x="129" y="34"/>
      <point x="179" y="0"/>
      <point x="273" y="0" type="curve" smooth="yes"/>
      <point x="336" y="0"/>
      <point x="374" y="0"/>
      <point x="444" y="0" type="curve"/>
      <point x="463" y="118" type="line"/>
      <point x="440" y="118"/>
      <point x="449" y="118"/>
      <point x="433" y="118" type="curve" smooth="yes"/>
      <point x="409" y="118"/>
      <point x="397" y="126"/>
      <point x="397" y="147" type="curve" smooth="yes"/>
      <point x="397" y="160"/>
      <point x="398" y="181"/>
    </contour>
  </outline>
</glyph>
<glyph name="ohorntilde" format="2">
  <advance width="926"/>
  <unicode hex="1EE1"/>
  <outline>
    <contour>
      <point x="611" y="615" type="curve" smooth="yes"/>
      <point x="704" y="615"/>
      <point x="761" y="675"/>
      <point x="795" y="851" type="curve"/>
      <point x="688" y="876" type="line"/>
      <point x="665" y="798"/>
      <point x="654" y="766"/>
      <point x="618" y="766" type="curve" smooth="yes"/>
      <point x="553" y="766"/>
      <point x="550" y="868"/>
      <point x="405" y="868" type="curve" smooth="yes"/>
      <point x="301" y="868"/>
      <point x="261" y="805"/>
      <point x="221" y="637" type="curve"/>
      <point x="329" y="611" type="line"/>
      <point x="352" y="687"/>
      <point x="359" y="720"/>
      <point x="393" y="720" type="curve" smooth="yes"/>
      <point x="459" y="720"/>
      <point x="455" y="615"/>
    </contour>
    <contour>
      <point x="454" y="-12" type="curve" smooth="yes"/>
      <point x="715" y="-12"/>
      <point x="855" y="130"/>
      <point x="855" y="267" type="curve" smooth="yes"/>
      <point x="855" y="372"/>
      <point x="794" y="430"/>
      <point x="676" y="463" type="curve"/>
      <point x="712" y="444" type="line"/>
      <point x="721" y="497" type="line"/>
      <point x="654" y="496" type="line"/>
      <point x="709" y="477"/>
      <point x="768" y="451"/>
      <point x="838" y="451" type="curve" smooth="yes"/>
      <point x="949" y="451"/>
      <point x="1016" y="519"/>
      <point x="1027" y="758" type="curve"/>
      <point x="839" y="758" type="line"/>
      <point x="826" y="591"/>
      <point x="802" y="555"/>
      <point x="732" y="555" type="curve" smooth="yes"/>
      <point x="652" y="555"/>
      <point x="596" y="583"/>
      <point x="484" y="583" type="curve" smooth="yes"/>
      <point x="222" y="583"/>
      <point x="80" y="437"/>
      <point x="80" y="260" type="curve" smooth="yes"/>
      <point x="80" y="85"/>
      <point x="214" y="-12"/>
    </contour>
    <contour>
      <point x="447" y="103" type="curve" smooth="yes"/>
      <point x="418" y="103"/>
      <point x="396" y="111"/>
      <point x="380" y="129" type="curve" smooth="yes"/>
      <point x="362" y="150"/>
      <point x="353" y="183"/>
      <point x="353" y="233" type="curve" smooth="yes"/>
      <point x="353" y="323"/>
      <point x="380" y="468"/>
      <point x="491" y="468" type="curve" smooth="yes"/>
      <point x="521" y="468"/>
      <point x="544" y="459"/>
      <point x="560" y="438" type="curve" smooth="yes"/>
      <point x="576" y="418"/>
      <point x="584" y="386"/>
      <point x="584" y="339" type="curve" smooth="yes"/>
      <point x="584" y="244"/>
      <point x="557" y="103"/>
    </contour>
  </outline>
</glyph>
<glyph name="dagger" format="2">
  <advance width="699"/>
  <unicode hex="2020"/>
  <outline>
    <contour>
      <point x="383" y="459" type="line"/>
      <point x="463" y="459" type="line"/>
      <point x="641" y="369" type="line"/>
      <point x="697" y="369" type="line"/>
      <point x="730" y="574" type="line"/>
      <point x="674" y="574" type="line"/>
      <point x="468" y="495" type="line"/>
      <point x="388" y="495" type="line"/>
      <point x="207" y="574" type="line"/>
      <point x="151" y="574" type="line"/>
      <point x="118" y="369" type="line"/>
      <point x="174" y="369" type="line"/>
    </contour>
    <contour>
      <point x="617" y="710" type="line"/>
      <point x="307" y="710" type="line"/>
      <point x="300" y="665" type="line" smooth="yes"/>
      <point x="294" y="625"/>
      <point x="399" y="558"/>
      <point x="386" y="473" type="curve" smooth="yes"/>
      <point x="368" y="360"/>
      <point x="266" y="316"/>
      <point x="245" y="302" type="curve"/>
      <point x="241" y="278" type="line" smooth="yes"/>
      <point x="235" y="237"/>
      <point x="287" y="151"/>
      <point x="292" y="-67" type="curve"/>
      <point x="386" y="-67" type="line"/>
      <point x="461" y="151"/>
      <point x="541" y="237"/>
      <point x="547" y="278" type="curve" smooth="yes"/>
      <point x="551" y="302" type="line"/>
      <point x="533" y="316"/>
      <point x="446" y="360"/>
      <point x="464" y="473" type="curve" smooth="yes"/>
      <point x="477" y="558"/>
      <point x="604" y="625"/>
      <point x="610" y="665" type="curve" smooth="yes"/>
    </contour>
  </outline>
</glyph>
<glyph name="servicemark" format="2">
  <advance width="1376"/>
  <unicode hex="2120"/>
  <outline>
    <contour>
      <point x="612" y="238" type="line"/>
      <point x="798" y="238" type="line"/>
      <point x="810" y="318" type="line"/>
      <point x="807" y="318" type="line" smooth="yes"/>
      <point x="793" y="318"/>
      <point x="770" y="321"/>
      <point x="770" y="324" type="curve" smooth="yes"/>
      <point x="822" y="663" type="line"/>
      <point x="813" y="663" type="line"/>
      <point x="887" y="236" type="line"/>
      <point x="1009" y="236" type="line"/>
      <point x="1212" y="657" type="line"/>
      <point x="1203" y="657" type="line"/>
      <point x="1149" y="324" type="line" smooth="yes"/>
      <point x="1149" y="321"/>
      <point x="1126" y="318"/>
      <point x="1110" y="318" type="curve" smooth="yes"/>
      <point x="1104" y="318" type="line"/>
      <point x="1092" y="238" type="line"/>
      <point x="1344" y="238" type="line"/>
      <point x="1356" y="318" type="line"/>
      <point x="1343" y="318" type="line" smooth="yes"/>
      <point x="1315" y="318"/>
      <point x="1300" y="323"/>
      <point x="1303" y="338" type="curve" smooth="yes"/>
      <point x="1345" y="608" type="line" smooth="yes"/>
      <point x="1348" y="625"/>
      <point x="1365" y="629"/>
      <point x="1393" y="629" type="curve" smooth="yes"/>
      <point x="1406" y="629" type="line"/>
      <point x="1418" y="710" type="line"/>
      <point x="1153" y="710" type="line"/>
      <point x="950" y="286" type="line"/>
      <point x="1022" y="291" type="line"/>
      <point x="953" y="710" type="line"/>
      <point x="686" y="710" type="line"/>
      <point x="674" y="629" type="line"/>
      <point x="685" y="629" type="line" smooth="yes"/>
      <point x="713" y="629"/>
      <point x="730" y="625"/>
      <point x="727" y="608" type="curve" smooth="yes"/>
      <point x="685" y="338" type="line" smooth="yes"/>
      <point x="682" y="323"/>
      <point x="663" y="318"/>
      <point x="635" y="318" type="curve" smooth="yes"/>
      <point x="624" y="318" type="line"/>
    </contour>
    <contour>
      <point x="152" y="567" type="curve" smooth="yes"/>
      <point x="152" y="475"/>
      <point x="216" y="444"/>
      <point x="298" y="426" type="curve" smooth="yes"/>
      <point x="405" y="403"/>
      <point x="443" y="395"/>
      <point x="443" y="359" type="curve" smooth="yes"/>
      <point x="443" y="320"/>
      <point x="396" y="306"/>
      <point x="337" y="306" type="curve" smooth="yes"/>
      <point x="259" y="306"/>
      <point x="201" y="320"/>
      <point x="192" y="389" type="curve"/>
      <point x="112" y="389" type="line"/>
      <point x="86" y="230" type="line"/>
      <point x="159" y="230" type="line"/>
      <point x="189" y="332" type="line"/>
      <point x="195" y="352"/>
      <point x="165" y="354"/>
      <point x="161" y="366" type="curve"/>
      <point x="161" y="272"/>
      <point x="234" y="227"/>
      <point x="341" y="227" type="curve" smooth="yes"/>
      <point x="485" y="227"/>
      <point x="581" y="276"/>
      <point x="581" y="398" type="curve" smooth="yes"/>
      <point x="581" y="484"/>
      <point x="524" y="513"/>
      <point x="424" y="535" type="curve" smooth="yes"/>
      <point x="339" y="554"/>
      <point x="285" y="558"/>
      <point x="285" y="596" type="curve" smooth="yes"/>
      <point x="285" y="628"/>
      <point x="325" y="641"/>
      <point x="381" y="641" type="curve" smooth="yes"/>
      <point x="438" y="641"/>
      <point x="496" y="630"/>
      <point x="504" y="578" type="curve"/>
      <point x="583" y="578" type="line"/>
      <point x="605" y="720" type="line"/>
      <point x="533" y="720" type="line"/>
      <point x="507" y="636" type="line"/>
      <point x="500" y="612"/>
      <point x="529" y="609"/>
      <point x="533" y="602" type="curve"/>
      <point x="529" y="679"/>
      <point x="461" y="721"/>
      <point x="364" y="721" type="curve"/>
      <point x="242" y="721"/>
      <point x="152" y="667"/>
    </contour>
  </outline>
</glyph>
<glyph name="notequal" format="2">
  <advance width="680"/>
  <unicode hex="2260"/>
  <outline>
    <contour>
      <point x="567" y="639" type="line"/>
      <point x="110" y="-1" type="line"/>
      <point x="243" y="-1" type="line"/>
      <point x="700" y="639" type="line"/>
    </contour>
    <contour>
      <point x="704" y="526" type="line"/>
      <point x="142" y="526" type="line"/>
      <point x="119" y="376" type="line"/>
      <point x="681" y="376" type="line"/>
    </contour>
    <contour>
      <point x="662" y="262" type="line"/>
      <point x="100" y="262" type="line"/>
      <point x="77" y="112" type="line"/>
      <point x="639" y="112" type="line"/>
    </contour>
  </outline>
</glyph>
<glyph name="at.uc" format="2">
  <advance width="1212"/>
  <outline>
    <contour>
      <point x="566" y="148" type="curve" smooth="yes"/>
      <point x="655" y="148"/>
      <point x="715" y="184"/>
      <point x="775" y="280" type="curve"/>
      <point x="739" y="314" type="line"/>
      <point x="700" y="252"/>
      <point x="663" y="225"/>
      <point x="625" y="225" type="curve" smooth="yes"/>
      <point x="593" y="225"/>
      <point x="574" y="246"/>
      <point x="574" y="297" type="curve" smooth="yes"/>
      <point x="574" y="397"/>
      <point x="617" y="496"/>
      <point x="687" y="496" type="curve" smooth="yes"/>
      <point x="728" y="496"/>
      <point x="752" y="465"/>
      <point x="759" y="366" type="curve"/>
      <point x="796" y="430" type="line"/>
      <point x="786" y="516"/>
      <point x="752" y="573"/>
      <point x="647" y="573" type="curve" smooth="yes"/>
      <point x="510" y="573"/>
      <point x="409" y="444"/>
      <point x="409" y="311" type="curve" smooth="yes"/>
      <point x="409" y="187"/>
      <point x="481" y="148"/>
    </contour>
    <contour>
      <point x="640" y="-66" type="curve" smooth="yes"/>
      <point x="781" y="-66"/>
      <point x="936" y="-38"/>
      <point x="1010" y="-7" type="curve"/>
      <point x="980" y="82" type="line"/>
      <point x="920" y="59"/>
      <point x="782" y="28"/>
      <point x="640" y="28" type="curve" smooth="yes"/>
      <point x="356" y="28"/>
      <point x="239" y="136"/>
      <point x="239" y="333" type="curve" smooth="yes"/>
      <point x="239" y="560"/>
      <point x="412" y="686"/>
      <point x="728" y="686" type="curve" smooth="yes"/>
      <point x="977" y="686"/>
      <point x="1098" y="600"/>
      <point x="1098" y="437" type="curve" smooth="yes"/>
      <point x="1098" y="288"/>
      <point x="1017" y="235"/>
      <point x="937" y="235" type="curve" smooth="yes"/>
      <point x="890" y="235"/>
      <point x="881" y="253"/>
      <point x="890" y="294" type="curve" smooth="yes"/>
      <point x="950" y="567" type="line"/>
      <point x="835" y="567" type="line"/>
      <point x="779" y="471" type="line"/>
      <point x="771" y="480" type="line"/>
      <point x="722" y="250" type="line"/>
      <point x="728" y="254" type="line"/>
      <point x="766" y="180"/>
      <point x="819" y="154"/>
      <point x="920" y="154" type="curve" smooth="yes"/>
      <point x="1076" y="154"/>
      <point x="1218" y="252"/>
      <point x="1218" y="443" type="curve" smooth="yes"/>
      <point x="1218" y="655"/>
      <point x="1033" y="780"/>
      <point x="738" y="780" type="curve" smooth="yes"/>
      <point x="366" y="780"/>
      <point x="119" y="616"/>
      <point x="119" y="333" type="curve" smooth="yes"/>
      <point x="119" y="68"/>
      <point x="296" y="-66"/>
    </contour>
  </outline>
</glyph>
<glyph name="breve_acute.uc" format="2">
  <advance width="537"/>
  <anchor x="385" y="741" name="_top"/>
  <outline>
    <contour>
      <point x="417" y="1186" type="curve" smooth="yes"/>
      <point x="303" y="1080" type="line"/>
      <point x="303" y="1035" type="line"/>
      <point x="360" y="1035" type="line"/>
      <point x="521" y="1064" type="line" smooth="yes"/>
      <point x="624" y="1083"/>
      <point x="668" y="1116"/>
      <point x="668" y="1179" type="curve" smooth="yes"/>
      <point x="668" y="1234"/>
      <point x="630" y="1273"/>
      <point x="569" y="1273" type="curve" smooth="yes"/>
      <point x="506" y="1273"/>
      <point x="473" y="1238"/>
    </contour>
    <contour>
      <point x="403" y="781" type="curve" smooth="yes"/>
      <point x="240" y="781"/>
      <point x="136" y="856"/>
      <point x="159" y="1002" type="curve"/>
      <point x="271" y="1002" type="line"/>
      <point x="276" y="945"/>
      <point x="333" y="927"/>
      <point x="420" y="927" type="curve" smooth="yes"/>
      <point x="507" y="927"/>
      <point x="567" y="945"/>
      <point x="590" y="1002" type="curve"/>
      <point x="696" y="1002" type="line"/>
      <point x="673" y="846"/>
      <point x="576" y="781"/>
    </contour>
  </outline>
</glyph>
<glyph name="breve_grave.uc" format="2">
  <advance width="537"/>
  <anchor x="385" y="741" name="_top"/>
  <outline>
    <contour>
      <point x="438" y="1186" type="curve" smooth="yes"/>
      <point x="552" y="1080" type="line"/>
      <point x="552" y="1035" type="line"/>
      <point x="495" y="1035" type="line"/>
      <point x="333" y="1064" type="line" smooth="yes"/>
      <point x="231" y="1082"/>
      <point x="188" y="1116"/>
      <point x="188" y="1179" type="curve" smooth="yes"/>
      <point x="188" y="1234"/>
      <point x="225" y="1273"/>
      <point x="286" y="1273" type="curve" smooth="yes"/>
      <point x="349" y="1273"/>
      <point x="383" y="1237"/>
    </contour>
    <contour>
      <point x="403" y="781" type="curve" smooth="yes"/>
      <point x="240" y="781"/>
      <point x="136" y="856"/>
      <point x="159" y="1002" type="curve"/>
      <point x="271" y="1002" type="line"/>
      <point x="276" y="945"/>
      <point x="333" y="927"/>
      <point x="420" y="927" type="curve" smooth="yes"/>
      <point x="507" y="927"/>
      <point x="567" y="945"/>
      <point x="590" y="1002" type="curve"/>
      <point x="696" y="1002" type="line"/>
      <point x="673" y="846"/>
      <point x="576" y="781"/>
    </contour>
  </outline>
</glyph>
<glyph name="circumflex_acute" format="2">
  <advance width="615"/>
  <anchor x="365" y="571" name="_top"/>
  <outline>
    <contour>
      <point x="678" y="921" type="curve" smooth="yes"/>
      <point x="613" y="814" type="line"/>
      <point x="606" y="769" type="line"/>
      <point x="665" y="769" type="line"/>
      <point x="793" y="831" type="line" smooth="yes"/>
      <point x="869" y="868"/>
      <point x="917" y="899"/>
      <point x="917" y="967" type="curve" smooth="yes"/>
      <point x="917" y="1005"/>
      <point x="884" y="1036"/>
      <point x="830" y="1036" type="curve" smooth="yes"/>
      <point x="766" y="1036"/>
      <point x="729" y="1004"/>
    </contour>
    <contour>
      <point x="491" y="870" type="line"/>
      <point x="636" y="671" type="line"/>
      <point x="628" y="618" type="line"/>
      <point x="552" y="618" type="line"/>
      <point x="352" y="727" type="line"/>
      <point x="411" y="729" type="line"/>
      <point x="189" y="618" type="line"/>
      <point x="98" y="618" type="line"/>
      <point x="106" y="671" type="line"/>
      <point x="318" y="870" type="line"/>
    </contour>
  </outline>
</glyph>
<glyph name="circumflex_acute.uc" format="2">
  <advance width="798"/>
  <anchor x="390" y="741" name="_top"/>
  <outline>
    <contour>
      <point x="726" y="1090" type="curve" smooth="yes"/>
      <point x="636" y="966" type="line"/>
      <point x="629" y="921" type="line"/>
      <point x="686" y="921" type="line"/>
      <point x="813" y="972" type="line" smooth="yes"/>
      <point x="925" y="1017"/>
      <point x="974" y="1050"/>
      <point x="974" y="1120" type="curve" smooth="yes"/>
      <point x="974" y="1162"/>
      <point x="944" y="1197"/>
      <point x="885" y="1197" type="curve" smooth="yes"/>
      <point x="822" y="1197"/>
      <point x="776" y="1158"/>
    </contour>
    <contour>
      <point x="523" y="998" type="line"/>
      <point x="678" y="824" type="line"/>
      <point x="669" y="771" type="line"/>
      <point x="585" y="771" type="line"/>
      <point x="381" y="862" type="line"/>
      <point x="445" y="861" type="line"/>
      <point x="222" y="771" type="line"/>
      <point x="122" y="771" type="line"/>
      <point x="131" y="824" type="line"/>
      <point x="344" y="998" type="line"/>
    </contour>
  </outline>
</glyph>
<glyph name="parenleft.uc" format="2">
  <advance width="564"/>
  <outline>
    <contour>
      <point x="340" y="-80" type="curve"/>
      <point x="510" y="-80" type="line"/>
      <point x="510" y="-77" type="line"/>
      <point x="419" y="3"/>
      <point x="331" y="105"/>
      <point x="331" y="275" type="curve" smooth="yes"/>
      <point x="331" y="491"/>
      <point x="480" y="636"/>
      <point x="672" y="747" type="curve"/>
      <point x="673" y="750" type="line"/>
      <point x="501" y="750" type="line"/>
      <point x="281" y="682"/>
      <point x="108" y="513"/>
      <point x="108" y="295" type="curve" smooth="yes"/>
      <point x="108" y="138"/>
      <point x="203" y="15"/>
    </contour>
  </outline>
</glyph>
<glyph name="ringhalfright" format="2">
  <advance width="564"/>
  <anchor x="403" y="566" name="_top"/>
  <outline>
    <contour>
      <point x="324" y="910" type="line"/>
      <point x="439" y="910"/>
      <point x="510" y="847"/>
      <point x="510" y="760" type="curve" smooth="yes"/>
      <point x="510" y="674"/>
      <point x="439" y="610"/>
      <point x="324" y="610" type="curve"/>
      <point x="324" y="693" type="line"/>
      <point x="373" y="693"/>
      <point x="399" y="715"/>
      <point x="399" y="760" type="curve" smooth="yes"/>
      <point x="399" y="805"/>
      <point x="373" y="828"/>
      <point x="324" y="828" type="curve"/>
    </contour>
  </outline>
</glyph>
<glyph name="zero.propslash" format="2">
  <advance width="748"/>
  <outline>
    <contour>
      <point x="209" y="129" type="line"/>
      <point x="640" y="469" type="line"/>
      <point x="620" y="556" type="line"/>
      <point x="185" y="213" type="line"/>
    </contour>
    <contour>
      <point x="397" y="-11" type="curve" smooth="yes"/>
      <point x="685" y="-11"/>
      <point x="764" y="214"/>
      <point x="764" y="406" type="curve" smooth="yes"/>
      <point x="764" y="596"/>
      <point x="653" y="693"/>
      <point x="460" y="693" type="curve" smooth="yes"/>
      <point x="172" y="693"/>
      <point x="92" y="468"/>
      <point x="92" y="276" type="curve" smooth="yes"/>
      <point x="92" y="87"/>
      <point x="205" y="-11"/>
    </contour>
    <contour>
      <point x="389" y="98" type="curve" smooth="yes"/>
      <point x="342" y="98"/>
      <point x="314" y="122"/>
      <point x="314" y="174" type="curve" smooth="yes"/>
      <point x="314" y="216"/>
      <point x="318" y="266"/>
      <point x="335" y="358" type="curve" smooth="yes"/>
      <point x="371" y="553"/>
      <point x="419" y="585"/>
      <point x="467" y="585" type="curve" smooth="yes"/>
      <point x="516" y="585"/>
      <point x="543" y="557"/>
      <point x="543" y="508" type="curve" smooth="yes"/>
      <point x="543" y="466"/>
      <point x="540" y="415"/>
      <point x="523" y="324" type="curve" smooth="yes"/>
      <point x="487" y="130"/>
      <point x="438" y="98"/>
    </contour>
  </outline>
</glyph>
<glyph name="zero.slash" format="2">
  <advance width="680"/>
  <outline>
    <contour>
      <point x="190.0" y="127.5" type="line"/>
      <point x="621.0" y="467.5" type="line"/>
      <point x="601.0" y="554.5" type="line"/>
      <point x="167.0" y="211.5" type="line"/>
    </contour>
    <contour>
      <point x="363.0" y="-11.0" type="curve" smooth="yes"/>
      <point x="631.0" y="-11.0"/>
      <point x="710.0" y="214.0"/>
      <point x="710.0" y="406.0" type="curve" smooth="yes"/>
      <point x="710.0" y="596.0"/>
      <point x="599.0" y="693.0"/>
      <point x="426.0" y="693.0" type="curve" smooth="yes"/>
      <point x="158.0" y="693.0"/>
      <point x="78.0" y="468.0"/>
      <point x="78.0" y="276.0" type="curve" smooth="yes"/>
      <point x="78.0" y="87.0"/>
      <point x="191.0" y="-11.0"/>
    </contour>
    <contour>
      <point x="354.5" y="97.5" type="curve" smooth="yes"/>
      <point x="317.5" y="97.5"/>
      <point x="299.5" y="121.5"/>
      <point x="299.5" y="173.5" type="curve" smooth="yes"/>
      <point x="299.5" y="215.5"/>
      <point x="303.5" y="265.5"/>
      <point x="320.5" y="357.5" type="curve" smooth="yes"/>
      <point x="356.5" y="552.5"/>
      <point x="384.5" y="584.5"/>
      <point x="432.5" y="584.5" type="curve" smooth="yes"/>
      <point x="471.5" y="584.5"/>
      <point x="488.5" y="556.5"/>
      <point x="488.5" y="507.5" type="curve" smooth="yes"/>
      <point x="488.5" y="465.5"/>
      <point x="485.5" y="414.5"/>
      <point x="468.5" y="323.5" type="curve" smooth="yes"/>
      <point x="432.5" y="129.5"/>
      <point x="403.5" y="97.5"/>
    </contour>
  </outline>
</glyph>
<glyph name="zero.slashlin" format="2">
  <advance width="680"/>
  <outline>
    <contour>
      <point x="366.0" y="-11.0" type="curve" smooth="yes"/>
      <point x="620.0" y="-11.0"/>
      <point x="712.0" y="217.0"/>
      <point x="712.0" y="441.0" type="curve" smooth="yes"/>
      <point x="712.0" y="622.0"/>
      <point x="631.0" y="735.0"/>
      <point x="429.0" y="735.0" type="curve" smooth="yes"/>
      <point x="174.0" y="735.0"/>
      <point x="83.0" y="507.0"/>
      <point x="83.0" y="283.0" type="curve" smooth="yes"/>
      <point x="83.0" y="101.0"/>
      <point x="164.0" y="-11.0"/>
    </contour>
    <contour>
      <point x="359.0" y="108.0" type="curve" smooth="yes"/>
      <point x="327.0" y="108.0"/>
      <point x="306.0" y="125.0"/>
      <point x="306.0" y="180.0" type="curve" smooth="yes"/>
      <point x="306.0" y="224.0"/>
      <point x="310.0" y="274.0"/>
      <point x="329.0" y="380.0" type="curve" smooth="yes"/>
      <point x="365.0" y="577.0"/>
      <point x="390.0" y="616.0"/>
      <point x="437.0" y="616.0" type="curve" smooth="yes"/>
      <point x="471.0" y="616.0"/>
      <point x="489.0" y="593.0"/>
      <point x="489.0" y="544.0" type="curve" smooth="yes"/>
      <point x="489.0" y="499.0"/>
      <point x="484.0" y="450.0"/>
      <point x="466.0" y="344.0" type="curve" smooth="yes"/>
      <point x="433.0" y="147.0"/>
      <point x="406.0" y="108.0"/>
    </contour>
    <contour>
      <point x="194" y="149.0" type="line"/>
      <point x="625" y="489.0" type="line"/>
      <point x="604" y="575.0" type="line"/>
      <point x="171" y="232.0" type="line"/>
    </contour>
  </outline>
</glyph>
